<svg width="24" height="24" viewBox="0 0 24 24" xmlns="http://www.w3.org/2000/svg">
    <path d="M21.5 13.5H20V15c0 .276-.224.5-.5.5h-2c-.276 0-.5-.224-.5-.5v-1.5h-1.5c-.276 0-.5-.224-.5-.5v-2c0-.276.224-.5.5-.5H17V9c0-.276.224-.5.5-.5h2c.276 0 .5.224.5.5v1.5h1.5c.276 0 .5.224.5.5v2c0 .276-.224.5-.5.5zM14 12c0 3.31-2.69 6-6 6s-6-2.69-6-6 2.69-6 6-6c1.602 0 3.11.624 4.243 1.757.093.094.146.22.146.353 0 .133-.054.26-.147.354L10.83 9.88c-.188.186-.52.186-.708 0C9.555 9.31 8.802 9 8 9c-1.654 0-3 1.346-3 3s1.346 3 3 3c1.08 0 2.067-.592 2.597-1.5H8c-.276 0-.5-.224-.5-.5v-2c0-.276.224-.5.5-.5h5.5c.276 0 .5.224.5.5v1zM12 0C5.383 0 0 5.383 0 12s5.383 12 12 12 12-5.383 12-12S18.617 0 12 0z" fill-rule="evenodd"/>
</svg>