<svg width="25" height="20" viewBox="0 0 25 20" xmlns="http://www.w3.org/2000/svg">
    <path d="M24.366 2.43c-.153-.165-.398-.207-.598-.102-.143.075-.42.173-.747.27.392-.514.71-1.097.845-1.62.054-.202-.027-.417-.2-.537-.174-.118-.403-.116-.573.005-.294.21-1.653.81-2.53 1.006C19.45.45 18.342 0 17.002 0c-1.006 0-1.937.287-3.02.93-1.886 1.12-2.213 3.54-2.073 5.025-5.123-.488-7.996-3.468-9.017-4.765C2.79 1.06 2.63 1 2.465 1c-.165.013-.314.105-.397.248-1.22 2.093-.72 4.247.217 5.696-.154-.105-.31-.222-.466-.35-.15-.124-.358-.152-.533-.068-.175.082-.287.258-.287.452 0 2.197 1.287 3.767 2.543 4.66-.123-.034-.255-.072-.394-.116-.19-.057-.393-.002-.523.145s-.164.357-.084.536c.803 1.805 2.4 3.15 4.19 3.62-1.54.936-3.667 1.417-5.675 1.18-.234-.03-.46.115-.533.34-.074.226.02.473.227.59C3.186 19.324 5.715 20 8.482 20h.02c3.78-.003 7.33-1.648 9.997-4.632 2.572-2.88 3.92-6.566 3.645-9.923.66-.494 1.662-1.418 2.28-2.41.12-.192.095-.44-.06-.605z" fill-rule="evenodd"/>
</svg>