<svg width="24" height="18" viewBox="0 0 25 22" xmlns="http://www.w3.org/2000/svg">
    <path d="M16.77 9.42l-7 4.5c-.08.054-.175.08-.27.08-.082 0-.164-.02-.24-.06-.16-.088-.26-.257-.26-.44v-9c0-.184.1-.35.26-.438.16-.088.357-.082.51.018l7 4.5c.144.09.23.25.23.42 0 .17-.086.33-.23.42M20.936.674l-1.9-.236c-4.65-.582-9.418-.582-14.07 0l-1.9.236C1.32.893 0 2.386 0 4.148v9.704c0 1.76 1.318 3.254 3.066 3.473l1.9.238C7.29 17.852 9.657 18 12 18c2.343 0 4.71-.147 7.036-.438l1.9-.238C22.682 17.107 24 15.613 24 13.852V4.15C24 2.386 22.683.892 20.935.673" fill-rule="evenodd"/>
</svg>